<svg width="60" height="60" viewBox="0 0 60 60" fill="none" xmlns="http://www.w3.org/2000/svg">
<path d="M30 59.5C29.3643 59.5 28.7333 59.4799 28.1077 59.4403L28.0761 59.9393C27.1076 59.878 26.1515 59.7707 25.2101 59.6197L25.2893 59.126C24.0322 58.9243 22.8017 58.6431 21.603 58.2879L21.461 58.7673C20.534 58.4925 19.6257 58.1742 18.7386 57.8147L18.9264 57.3513C17.752 56.8754 16.6153 56.326 15.5218 55.7088L15.276 56.1442C14.4365 55.6704 13.6221 55.1573 12.8353 54.6075L13.1217 54.1976C12.0863 53.4741 11.0996 52.6858 10.1672 51.8386L9.83097 52.2086C9.11903 51.5617 8.43832 50.881 7.79137 50.169L8.16142 49.8328C7.3142 48.9004 6.5259 47.9137 5.80236 46.8783L5.39252 47.1647C4.84266 46.3779 4.32957 45.5635 3.85575 44.724L4.29119 44.4782C3.67402 43.3847 3.12463 42.248 2.64871 41.0736L2.18532 41.2614C1.82578 40.3743 1.50746 39.466 1.23272 38.539L1.71211 38.397C1.35686 37.1983 1.07571 35.9678 0.873995 34.7107L0.38031 34.7899C0.229252 33.8485 0.121994 32.8924 0.0606955 31.9239L0.559697 31.8923C0.520102 31.2667 0.5 30.6357 0.5 30C0.5 29.3643 0.520102 28.7333 0.559697 28.1077L0.0606952 28.0761C0.121994 27.1076 0.229251 26.1515 0.380309 25.2101L0.873994 25.2893C1.07571 24.0322 1.35686 22.8017 1.71211 21.603L1.23272 21.461C1.50746 20.534 1.82578 19.6257 2.18532 18.7386L2.64871 18.9264C3.12463 17.752 3.67402 16.6153 4.29119 15.5218L3.85576 15.276C4.32957 14.4365 4.84266 13.6221 5.39252 12.8353L5.80236 13.1217C6.5259 12.0863 7.31421 11.0996 8.16142 10.1672L7.79137 9.83097C8.43832 9.11903 9.11903 8.43832 9.83097 7.79137L10.1672 8.16142C11.0996 7.3142 12.0863 6.5259 13.1217 5.80236L12.8353 5.39252C13.6221 4.84266 14.4365 4.32957 15.276 3.85575L15.5218 4.29119C16.6153 3.67402 17.752 3.12463 18.9264 2.64871L18.7386 2.18532C19.6257 1.82578 20.534 1.50746 21.461 1.23272L21.603 1.71211C22.8017 1.35686 24.0322 1.07571 25.2893 0.873995L25.2101 0.38031C26.1515 0.229251 27.1076 0.121994 28.0761 0.0606955L28.1077 0.559697C28.7333 0.520102 29.3643 0.5 30 0.5C30.6357 0.5 31.2667 0.520102 31.8923 0.559697L31.9239 0.0606951C32.8924 0.121994 33.8485 0.229251 34.7899 0.380309L34.7107 0.873994C35.9678 1.07571 37.1983 1.35686 38.397 1.71211L38.539 1.23272C39.466 1.50746 40.3743 1.82578 41.2614 2.18531L41.0736 2.64871C42.248 3.12463 43.3847 3.67402 44.4782 4.29119L44.724 3.85576C45.5635 4.32957 46.3779 4.84266 47.1647 5.39252L46.8783 5.80236C47.9137 6.5259 48.9004 7.31421 49.8328 8.16142L50.169 7.79137C50.881 8.43832 51.5617 9.11903 52.2086 9.83097L51.8386 10.1672C52.6858 11.0996 53.4741 12.0863 54.1976 13.1217L54.6075 12.8353C55.1573 13.6221 55.6704 14.4365 56.1442 15.276L55.7088 15.5218C56.326 16.6153 56.8754 17.752 57.3513 18.9264L57.8147 18.7386C58.1742 19.6257 58.4925 20.534 58.7673 21.461L58.2879 21.603C58.6431 22.8017 58.9243 24.0322 59.126 25.2893L59.6197 25.2101C59.7707 26.1515 59.878 27.1076 59.9393 28.0761L59.4403 28.1077C59.4799 28.7333 59.5 29.3643 59.5 30C59.5 30.6357 59.4799 31.2667 59.4403 31.8923L59.9393 31.9239C59.878 32.8924 59.7707 33.8485 59.6197 34.7899L59.126 34.7107C58.9243 35.9678 58.6431 37.1983 58.2879 38.397L58.7673 38.539C58.4925 39.466 58.1742 40.3743 57.8147 41.2614L57.3513 41.0736C56.8754 42.248 56.326 43.3847 55.7088 44.4782L56.1442 44.724C55.6704 45.5635 55.1573 46.3779 54.6075 47.1647L54.1976 46.8783C53.4741 47.9137 52.6858 48.9004 51.8386 49.8328L52.2086 50.169C51.5617 50.881 50.881 51.5617 50.169 52.2086L49.8328 51.8386C48.9004 52.6858 47.9137 53.4741 46.8783 54.1976L47.1647 54.6075C46.3779 55.1573 45.5635 55.6704 44.724 56.1442L44.4782 55.7088C43.3847 56.326 42.248 56.8754 41.0736 57.3513L41.2614 57.8147C40.3743 58.1742 39.466 58.4925 38.539 58.7673L38.397 58.2879C37.1983 58.6431 35.9678 58.9243 34.7107 59.126L34.7899 59.6197C33.8485 59.7707 32.8924 59.878 31.9239 59.9393L31.8923 59.4403C31.2667 59.4799 30.6357 59.5 30 59.5Z" stroke="#DFE3EB" stroke-dasharray="4 3"/>
</svg>
