<svg width="24" height="24" viewBox="0 0 24 24" fill="none" xmlns="http://www.w3.org/2000/svg">
<path d="M5.33 7.83331H18.6633" stroke="#0D0E26" stroke-width="1.5" stroke-linecap="round" stroke-linejoin="round"/>
<path d="M10.33 11.1667V16.1667" stroke="#0D0E26" stroke-width="1.5" stroke-linecap="round" stroke-linejoin="round"/>
<path d="M13.6634 11.1667V16.1667" stroke="#0D0E26" stroke-width="1.5" stroke-linecap="round" stroke-linejoin="round"/>
<path d="M6.16338 7.83331L6.99671 17.8333C6.99671 18.2753 7.1723 18.6993 7.48486 19.0118C7.79743 19.3244 8.22135 19.5 8.66338 19.5H15.33C15.7721 19.5 16.196 19.3244 16.5086 19.0118C16.8211 18.6993 16.9967 18.2753 16.9967 17.8333L17.83 7.83331" stroke="#0D0E26" stroke-width="1.5" stroke-linecap="round" stroke-linejoin="round"/>
<path d="M9.49669 7.83333V5.33333C9.49669 5.11232 9.58449 4.90036 9.74077 4.74408C9.89705 4.5878 10.109 4.5 10.33 4.5H13.6634C13.8844 4.5 14.0963 4.5878 14.2526 4.74408C14.4089 4.90036 14.4967 5.11232 14.4967 5.33333V7.83333" stroke="#0D0E26" stroke-width="1.5" stroke-linecap="round" stroke-linejoin="round"/>
</svg>
