<svg width="39" height="34" viewBox="0 0 39 34" fill="none" xmlns="http://www.w3.org/2000/svg">
<path d="M20.4452 9.35264L20.1971 9.27789C19.7766 9.1512 19.542 8.70761 19.6652 8.28979L20.4452 9.35264ZM20.4452 9.35264L20.4825 9.30963M20.4452 9.35264L20.4825 9.30963M20.4825 9.30963C20.8033 9.28605 21.0882 9.06531 21.1834 8.74138C21.7712 6.74639 23.6239 5.35446 25.6817 5.35446C26.1227 5.35446 26.4735 4.99437 26.4735 4.55877C26.4735 4.12315 26.1227 3.76309 25.6817 3.76309C22.8275 3.76309 20.4336 5.6823 19.6653 8.28956L20.4825 9.30963Z" fill="#FF844B" stroke="#FF844B" stroke-width="0.8"/>
<path d="M31.9564 10.1678C35.4823 10.5675 38.2244 13.603 38.2244 17.2689C38.2244 21.2049 35.0625 24.415 31.1647 24.415V24.415H28.8144C28.3724 24.415 28.0227 24.0533 28.0227 23.6181C28.0227 23.183 28.3723 22.8213 28.8144 22.8213H31.1649C34.1791 22.8213 36.6411 20.3349 36.6411 17.2689C36.6411 14.2029 34.1791 11.7165 31.1649 11.7165H31.1083C30.877 11.7165 30.6582 11.6148 30.5083 11.4396L30.8123 11.1796L30.5083 11.4396C30.359 11.265 30.2921 11.0343 30.3245 10.8068M31.9564 10.1678L30.3245 10.8068M31.9564 10.1678C31.9842 6.68631 29.1879 3.77386 25.6802 3.77386C24.6286 3.77386 23.6136 4.03409 22.7032 4.53278M31.9564 10.1678L22.7032 4.53278M30.3245 10.8068C30.3569 10.5779 30.3731 10.3484 30.3731 10.126C30.3731 7.49764 28.2626 5.3672 25.6804 5.3672C24.6743 5.3672 23.7163 5.68508 22.9065 6.28827L22.9063 6.28835C22.5135 6.58074 21.9576 6.44828 21.7335 6.01653L21.7334 6.01638C19.3775 1.47207 13.2302 0.864209 10.0423 4.81449C8.69791 6.48042 8.16909 8.64767 8.59285 10.7623L8.59288 10.7624C8.69043 11.2503 8.32223 11.7168 7.81673 11.7168H7.65975C4.6455 11.7168 2.18353 14.2032 2.18353 17.2692C2.18353 20.3352 4.6455 22.8216 7.65975 22.8216H10.0102C10.4523 22.8216 10.802 23.1833 10.802 23.6184C10.802 24.0536 10.4523 24.4153 10.0102 24.4153H7.65975C3.76189 24.4153 0.6 21.2049 0.6 17.2692C0.6 13.5903 3.36198 10.5459 6.90588 10.1635C6.68936 7.88099 7.3628 5.60722 8.813 3.80985L8.81302 3.80983C12.5123 -0.774508 19.5288 -0.37314 22.7032 4.53278M30.3245 10.8068L22.7032 4.53278M8.20065 10.8409C7.75372 8.61064 8.31146 6.32236 9.73096 4.56329C13.1006 0.387798 19.6001 1.03238 22.0886 5.83227C22.2002 6.04742 22.4744 6.11119 22.6675 5.96748L8.20065 10.8409ZM8.20065 10.8409C8.24989 11.0872 8.06381 11.3168 7.81673 11.3168H7.65975C4.41974 11.3168 1.78353 13.9872 1.78353 17.2692C1.78353 20.5512 4.41974 23.2216 7.65975 23.2216H10.0102C10.2265 23.2216 10.402 23.3993 10.402 23.6184C10.402 23.8375 10.2265 24.0153 10.0102 24.0153H7.65975C3.98764 24.0153 1 20.9889 1 17.2692C1 13.7913 3.61161 10.9196 6.95257 10.5608L8.20065 10.8409Z" fill="#FF844B" stroke="#FF844B" stroke-width="0.8"/>
<path d="M9.16787 23.219C9.16787 28.8335 13.735 33.4005 19.3494 33.4005C24.9638 33.4005 29.5309 28.8334 29.5309 23.219C29.5309 17.6045 24.9638 13.0375 19.3494 13.0375C13.7349 13.0375 9.16787 17.6046 9.16787 23.219ZM10.7506 23.219C10.7506 18.478 14.6083 14.6202 19.3494 14.6202C24.0903 14.6202 27.9482 18.478 27.9482 23.219C27.9482 27.9599 24.0903 31.8178 19.3494 31.8178C14.6084 31.8178 10.7506 27.96 10.7506 23.219Z" fill="#FF844B" stroke="#FF844B" stroke-width="0.8"/>
<path d="M18.601 26.1473C18.601 26.5179 18.9084 26.7938 19.2567 26.7938C19.6048 26.7938 19.9124 26.5183 19.9124 26.1473V19.7358C19.9124 19.3652 19.605 19.0893 19.2567 19.0893C18.9084 19.0893 18.601 19.3652 18.601 19.7358V26.1473Z" fill="#FF844B" stroke="#FF844B" stroke-width="0.8"/>
<path d="M20.8444 22.1709C20.8444 22.1709 20.8444 22.1709 20.8444 22.1709L19.2571 20.6403L17.6701 22.1707C17.67 22.1707 17.6699 22.1708 17.6698 22.1709C17.4149 22.4169 17.0075 22.4164 16.7528 22.1709L17.0305 21.883L16.7528 22.1709C16.4898 21.9173 16.4898 21.4999 16.7528 21.2463L18.7983 19.2738C18.7984 19.2738 18.7985 19.2737 18.7986 19.2736C18.7986 19.2736 18.7986 19.2736 18.7986 19.2736C19.0535 19.0276 19.4609 19.028 19.7156 19.2736L21.7613 21.2463C22.0242 21.4998 22.0244 21.9167 21.7619 22.1704C21.7617 22.1706 21.7615 22.1707 21.7613 22.1709L21.4837 21.883C21.4338 21.9312 21.3683 21.9552 21.3029 21.9552L20.8444 22.1709ZM20.8444 22.1709C20.9733 22.2952 21.1403 22.3552 21.3029 22.3552" fill="#FF844B" stroke="#FF844B" stroke-width="0.8"/>
</svg>
