<svg width="24" height="24" viewBox="0 0 24 24" fill="none" xmlns="http://www.w3.org/2000/svg">
<path d="M7.675 18L3.665 13.99C2.325 12.65 2.325 11.32 3.665 9.97998L10.345 3.29999L17.695 10.65C18.065 11.02 18.065 11.62 17.695 11.99L11.675 18.01C10.355 19.33 9.015 19.33 7.675 18Z" stroke="#292D32" stroke-width="1.5" stroke-miterlimit="10" stroke-linecap="round" stroke-linejoin="round"/>
<path d="M9.01501 1.95001L10.355 3.28998" stroke="#292D32" stroke-width="1.5" stroke-miterlimit="10" stroke-linecap="round" stroke-linejoin="round"/>
<path d="M2.73502 11.92L17.855 11.26" stroke="#292D32" stroke-width="1.5" stroke-miterlimit="10" stroke-linecap="round" stroke-linejoin="round"/>
<path d="M3.66501 22H16.665" stroke="#292D32" stroke-width="1.5" stroke-miterlimit="10" stroke-linecap="round" stroke-linejoin="round"/>
<path d="M19.515 15C19.515 15 17.665 17.01 17.665 18.24C17.665 19.26 18.495 20.09 19.515 20.09C20.535 20.09 21.365 19.26 21.365 18.24C21.365 17.01 19.515 15 19.515 15Z" stroke="#292D32" stroke-width="1.5" stroke-linecap="round" stroke-linejoin="round"/>
</svg>
