<svg width="24" height="24" viewBox="0 0 24 24" fill="none" xmlns="http://www.w3.org/2000/svg">
<path d="M14.3398 12.5209V14.9778C14.3398 17.0298 13.5208 17.8488 11.4688 17.8488H9.02086C6.97787 17.8488 6.14987 17.0298 6.14987 14.9778V12.5209C6.14987 10.4779 6.96887 9.65887 9.02086 9.65887H11.4778C13.5208 9.65887 14.3398 10.4779 14.3398 12.5209Z" stroke="#0D0E26" stroke-width="1.5" stroke-linecap="round" stroke-linejoin="round"/>
<path d="M17.8497 9.01323V11.4702C17.8497 13.5222 17.0307 14.3412 14.9787 14.3412H14.3397V12.5232C14.3397 10.4802 13.5207 9.66123 11.4687 9.66123H9.6597V9.01323C9.6597 6.96124 10.4787 6.15125 12.5307 6.15125H14.9877C17.0307 6.15125 17.8497 6.97024 17.8497 9.01323Z" stroke="#0D0E26" stroke-width="1.5" stroke-linecap="round" stroke-linejoin="round"/>
<path d="M21 14.699C21 18.182 18.183 20.999 14.7 20.999L15.645 19.424" stroke="#0D0E26" stroke-width="1.5" stroke-linecap="round" stroke-linejoin="round"/>
<path d="M3 9.29997C3 5.81699 5.81699 3 9.29997 3L8.35497 4.57499" stroke="#0D0E26" stroke-width="1.5" stroke-linecap="round" stroke-linejoin="round"/>
</svg>
