<svg width="24" height="24" viewBox="0 0 24 24" fill="none" xmlns="http://www.w3.org/2000/svg">
<path d="M9.16602 11.5874L10.7469 13.1748L13.9151 10" stroke="#3A4252" stroke-width="1.5" stroke-linecap="round" stroke-linejoin="round"/>
<path d="M10.7363 5.29026C11.1889 4.90325 11.9301 4.90325 12.3893 5.29026L13.4257 6.18235C13.6224 6.35289 13.9898 6.49064 14.2522 6.49064H15.3673C16.0626 6.49064 16.6333 7.06132 16.6333 7.75663V8.87174C16.6333 9.12756 16.771 9.50145 16.9416 9.69823L17.8336 10.7346C18.2207 11.1872 18.2207 11.9285 17.8336 12.3876L16.9416 13.424C16.771 13.6208 16.6333 13.9881 16.6333 14.2505V15.3656C16.6333 16.0609 16.0626 16.6316 15.3673 16.6316H14.2522C13.9963 16.6316 13.6224 16.7694 13.4257 16.9399L12.3893 17.832C11.9367 18.219 11.1954 18.219 10.7363 17.832L9.69987 16.9399C9.50309 16.7694 9.13576 16.6316 8.87338 16.6316H7.73859C7.04328 16.6316 6.47261 16.0609 6.47261 15.3656V14.244C6.47261 13.9881 6.33486 13.6208 6.17087 13.424L5.28534 12.3811C4.90489 11.9285 4.90489 11.1938 5.28534 10.7412L6.17087 9.69823C6.33486 9.50145 6.47261 9.13412 6.47261 8.8783V7.75007C6.47261 7.05476 7.04328 6.48408 7.73859 6.48408H8.87338C9.1292 6.48408 9.50309 6.34634 9.69987 6.17579L10.7363 5.29026Z" stroke="#3A4252" stroke-width="1.5" stroke-linecap="round" stroke-linejoin="round"/>
</svg>
