<svg width="24" height="24" viewBox="0 0 24 24" fill="none" xmlns="http://www.w3.org/2000/svg">
<path d="M4.125 18.05L5.54345 13.954M12.9903 18.05L11.5719 13.954M11.5719 13.954L8.6257 5.44646C8.60334 5.38188 8.512 5.38188 8.48963 5.44646L5.54345 13.954M11.5719 13.954H5.54345" stroke="#3A4252" stroke-width="1.5" stroke-linecap="round"/>
<path d="M4.125 18.05L5.54345 13.954M12.9903 18.05L11.5719 13.954M11.5719 13.954L8.6257 5.44646C8.60334 5.38188 8.512 5.38188 8.48963 5.44646L5.54345 13.954M11.5719 13.954H5.54345" stroke="#3A4252" stroke-width="1.5" stroke-linecap="round"/>
<path fill-rule="evenodd" clip-rule="evenodd" d="M12.476 17.4127L12.3619 17.7421C12.2263 18.1335 12.4337 18.5607 12.8252 18.6963C12.9414 18.7365 13.0609 18.7465 13.1749 18.7304C12.9967 18.6478 12.851 18.4957 12.7816 18.2954L12.476 17.4127ZM14.0634 17.4127L14.5732 15.9403H17.6223L18.4162 18.233C18.5518 18.6244 18.979 18.8318 19.3704 18.6963C19.7618 18.5607 19.9692 18.1335 19.8337 17.7421L18.865 14.9448L16.8745 9.19712C16.6192 8.45977 15.5764 8.45976 15.321 9.19712L13.3306 14.9448L13.2697 15.1208L14.0634 17.4127ZM17.1028 14.4403H15.0927L16.0978 11.538L17.1028 14.4403Z" fill="#3A4252"/>
</svg>
