<svg width="24" height="24" viewBox="0 0 24 24" fill="none" xmlns="http://www.w3.org/2000/svg">
<path d="M11.98 18.6666C15.6619 18.6666 18.6466 15.6819 18.6466 12C18.6466 8.31808 15.6619 5.33331 11.98 5.33331C8.29806 5.33331 5.31329 8.31808 5.31329 12C5.31329 15.6819 8.29806 18.6666 11.98 18.6666Z" stroke="#3A4252" stroke-width="1.5" stroke-linecap="round" stroke-linejoin="round"/>
<path d="M12 15C13.6569 15 15 13.6569 15 12C15 10.3431 13.6569 9 12 9C10.3431 9 9 10.3431 9 12C9 13.6569 10.3431 15 12 15Z" stroke="#3A4252" stroke-width="1.5" stroke-linecap="round" stroke-linejoin="round"/>
<path d="M7.26666 7.28668L9.62666 9.64002" stroke="#3A4252" stroke-width="1.5" stroke-linecap="round" stroke-linejoin="round"/>
<path d="M7.26666 16.7133L9.62666 14.36" stroke="#3A4252" stroke-width="1.5" stroke-linecap="round" stroke-linejoin="round"/>
<path d="M16.7 16.7133L14.34 14.36" stroke="#3A4252" stroke-width="1.5" stroke-linecap="round" stroke-linejoin="round"/>
<path d="M16.7 7.28668L14.34 9.64002" stroke="#3A4252" stroke-width="1.5" stroke-linecap="round" stroke-linejoin="round"/>
</svg>
