<svg width="24" height="24" viewBox="0 0 24 24" fill="none" xmlns="http://www.w3.org/2000/svg">
<path d="M17 8.66998C18.3807 8.66998 19.5 7.55069 19.5 6.16998C19.5 4.78927 18.3807 3.66998 17 3.66998C15.6193 3.66998 14.5 4.78927 14.5 6.16998C14.5 7.55069 15.6193 8.66998 17 8.66998Z" stroke="#3A4252" stroke-width="1.5" stroke-linecap="round" stroke-linejoin="round"/>
<path d="M7 14.5033C8.38071 14.5033 9.5 13.384 9.5 12.0033C9.5 10.6226 8.38071 9.5033 7 9.5033C5.61929 9.5033 4.5 10.6226 4.5 12.0033C4.5 13.384 5.61929 14.5033 7 14.5033Z" stroke="#3A4252" stroke-width="1.5" stroke-linecap="round" stroke-linejoin="round"/>
<path d="M17 20.3367C18.3807 20.3367 19.5 19.2174 19.5 17.8367C19.5 16.456 18.3807 15.3367 17 15.3367C15.6193 15.3367 14.5 16.456 14.5 17.8367C14.5 19.2174 15.6193 20.3367 17 20.3367Z" stroke="#3A4252" stroke-width="1.5" stroke-linecap="round" stroke-linejoin="round"/>
<path d="M9.15833 13.2617L14.85 16.5783" stroke="#3A4252" stroke-width="1.5" stroke-linecap="round" stroke-linejoin="round"/>
<path d="M14.8417 7.42834L9.15833 10.745" stroke="#3A4252" stroke-width="1.5" stroke-linecap="round" stroke-linejoin="round"/>
</svg>
