<svg width="24" height="24" viewBox="0 0 24 24" fill="none" xmlns="http://www.w3.org/2000/svg">
<path d="M17.625 8.11129C17.6565 8.59205 17.6171 9.13585 17.5226 9.74271L16.9472 13.439C16.4586 16.5206 15.0321 17.5609 11.9505 17.0802L8.25419 16.497C7.19022 16.3315 6.37056 16.0477 5.77159 15.6221C4.6288 14.8261 4.29779 13.5178 4.61304 11.5002L5.19625 7.80392C5.68489 4.72234 7.1114 3.68201 10.193 4.16277L13.8893 4.74598C16.364 5.13217 17.5226 6.14097 17.625 8.11129Z" stroke="#292D32" stroke-width="1.5" stroke-linecap="round" stroke-linejoin="round"/>
<path d="M19.0989 13.0922L17.9167 16.6466C16.9315 19.61 15.3553 20.3981 12.3919 19.413L8.83744 18.2308C7.04839 17.6397 6.05535 16.82 5.77162 15.6221C6.3706 16.0476 7.19025 16.3314 8.25422 16.4969L11.9505 17.0801C15.0321 17.5609 16.4586 16.5205 16.9473 13.4389L17.5226 9.74263C17.6172 9.13577 17.6566 8.59196 17.6251 8.11121C19.5087 9.11213 19.9185 10.6253 19.0989 13.0922Z" stroke="#292D32" stroke-width="1.5" stroke-linecap="round" stroke-linejoin="round"/>
<path d="M9.4364 9.55518C10.1938 9.55518 10.8077 8.94121 10.8077 8.18384C10.8077 7.42647 10.1938 6.8125 9.4364 6.8125C8.67903 6.8125 8.06506 7.42647 8.06506 8.18384C8.06506 8.94121 8.67903 9.55518 9.4364 9.55518Z" stroke="#292D32" stroke-width="1.5" stroke-linecap="round" stroke-linejoin="round"/>
</svg>
