<svg width="24" height="24" viewBox="0 0 24 24" fill="none" xmlns="http://www.w3.org/2000/svg">
<path d="M6.9365 14.3509L9.9565 17.3709C11.1965 18.6109 13.2098 18.6109 14.4565 17.3709L17.3832 14.4442C18.6232 13.2042 18.6232 11.1909 17.3832 9.94424L14.3565 6.93091C13.7232 6.29758 12.8498 5.95758 11.9565 6.00424L8.62317 6.16424C7.28984 6.22424 6.22984 7.28424 6.16317 8.61091L6.00317 11.9442C5.96317 12.8442 6.30317 13.7176 6.9365 14.3509Z" stroke="#3A4252" stroke-width="1.5" stroke-linecap="round" stroke-linejoin="round"/>
<path d="M10.4889 12.1517C11.4094 12.1517 12.1556 11.4055 12.1556 10.485C12.1556 9.56455 11.4094 8.81836 10.4889 8.81836C9.56846 8.81836 8.82227 9.56455 8.82227 10.485C8.82227 11.4055 9.56846 12.1517 10.4889 12.1517Z" stroke="#3A4252" stroke-width="1.5" stroke-linecap="round"/>
<path d="M12.8223 15.485L15.4889 12.8184" stroke="#FF844B" stroke-width="1.5" stroke-miterlimit="10" stroke-linecap="round" stroke-linejoin="round"/>
</svg>
