<svg width="24" height="24" viewBox="0 0 24 24" fill="none" xmlns="http://www.w3.org/2000/svg">
<path d="M11.5016 18.4016L12.92 14.3056M20.3669 18.4016L18.9484 14.3056M18.9484 14.3056L16.0023 5.79803C15.9799 5.73344 15.8886 5.73344 15.8662 5.79802L12.92 14.3056M18.9484 14.3056H12.92" stroke="#A1A7B3" stroke-width="1.5" stroke-linecap="round"/>
<path d="M11.5007 18.4016L12.9192 14.3056M20.366 18.4016L18.9476 14.3056M18.9476 14.3056L16.0014 5.79803C15.979 5.73344 15.8877 5.73344 15.8653 5.79802L12.9192 14.3056M18.9476 14.3056H12.9192" stroke="#A1A7B3" stroke-width="1.5" stroke-linecap="round"/>
<path d="M4.42081 11.9998L5.22414 12.8065L6.83414 11.1932" stroke="#A1A7B3" stroke-width="0.75" stroke-linecap="round" stroke-linejoin="round"/>
<path d="M5.21081 8.81797C5.44081 8.6213 5.81747 8.6213 6.05081 8.81797L6.57747 9.2713C6.67747 9.35797 6.86414 9.42797 6.99747 9.42797H7.56414C7.91747 9.42797 8.20747 9.71797 8.20747 10.0713V10.638C8.20747 10.768 8.27747 10.958 8.36414 11.058L8.81747 11.5846C9.01414 11.8146 9.01414 12.1913 8.81747 12.4246L8.36414 12.9513C8.27747 13.0513 8.20747 13.238 8.20747 13.3713V13.938C8.20747 14.2913 7.91747 14.5813 7.56414 14.5813H6.99747C6.86747 14.5813 6.67747 14.6513 6.57747 14.738L6.05081 15.1913C5.82081 15.388 5.44414 15.388 5.21081 15.1913L4.68414 14.738C4.58414 14.6513 4.39747 14.5813 4.26414 14.5813H3.68747C3.33414 14.5813 3.04414 14.2913 3.04414 13.938V13.368C3.04414 13.238 2.97414 13.0513 2.89081 12.9513L2.44081 12.4213C2.24747 12.1913 2.24747 11.818 2.44081 11.588L2.89081 11.058C2.97414 10.958 3.04414 10.7713 3.04414 10.6413V10.068C3.04414 9.71464 3.33414 9.42464 3.68747 9.42464H4.26414C4.39414 9.42464 4.58414 9.35464 4.68414 9.26797L5.21081 8.81797Z" stroke="#A1A7B3" stroke-width="0.75" stroke-linecap="round" stroke-linejoin="round"/>
</svg>
