<svg width="24" height="24" viewBox="0 0 24 24" fill="none" xmlns="http://www.w3.org/2000/svg">
<path d="M19.9995 14.3995C19.9995 17.4955 17.4955 19.9995 14.3995 19.9995C11.5595 19.9995 9.21547 17.8875 8.85547 15.1435C9.09547 15.1835 9.34347 15.1995 9.59947 15.1995C12.6955 15.1995 15.1995 12.6955 15.1995 9.59947C15.1995 9.34347 15.1835 9.09547 15.1435 8.85547C17.8875 9.21547 19.9995 11.5595 19.9995 14.3995Z" stroke="#3A4252" stroke-width="1.5" stroke-linecap="round" stroke-linejoin="round"/>
<path d="M14 14L16 16" stroke="#ED1455" stroke-width="1.5" stroke-linecap="round" stroke-linejoin="round"/>
<path d="M17 13L15 11" stroke="#1AA36F" stroke-width="1.5" stroke-linecap="round" stroke-linejoin="round"/>
<path d="M13 17L11 15" stroke="#FFD260" stroke-width="1.5" stroke-linecap="round" stroke-linejoin="round"/>
<path d="M15.2 9.6C15.2 12.696 12.696 15.2 9.6 15.2C9.344 15.2 9.096 15.184 8.856 15.144C6.112 14.784 4 12.44 4 9.6C4 6.504 6.504 4 9.6 4C12.44 4 14.784 6.112 15.144 8.856C15.184 9.096 15.2 9.344 15.2 9.6Z" stroke="#3A4252" stroke-width="1.5" stroke-linecap="round" stroke-linejoin="round"/>
</svg>
