<svg width="24" height="24" viewBox="0 0 24 24" fill="none" xmlns="http://www.w3.org/2000/svg">
<path d="M3.63 18.4016L5.04846 14.3056M12.4953 18.4016L11.0769 14.3056M11.0769 14.3056L8.13071 5.79803C8.10834 5.73344 8.017 5.73344 7.99464 5.79802L5.04846 14.3056M11.0769 14.3056H5.04846" stroke="#A1A7B3" stroke-width="1.5" stroke-linecap="round"/>
<path d="M3.62915 18.4016L5.0476 14.3056M12.4945 18.4016L11.076 14.3056M11.076 14.3056L8.12985 5.79803C8.10749 5.73344 8.01615 5.73344 7.99378 5.79802L5.0476 14.3056M11.076 14.3056H5.0476" stroke="#A1A7B3" stroke-width="1.5" stroke-linecap="round"/>
<path d="M17.287 11.9998L18.0904 12.8065L19.7004 11.1932" stroke="#A1A7B3" stroke-width="0.75" stroke-linecap="round" stroke-linejoin="round"/>
<path d="M18.077 8.81797C18.307 8.6213 18.6837 8.6213 18.917 8.81797L19.4437 9.2713C19.5437 9.35797 19.7304 9.42797 19.8637 9.42797H20.4304C20.7837 9.42797 21.0737 9.71797 21.0737 10.0713V10.638C21.0737 10.768 21.1437 10.958 21.2304 11.058L21.6837 11.5846C21.8804 11.8146 21.8804 12.1913 21.6837 12.4246L21.2304 12.9513C21.1437 13.0513 21.0737 13.238 21.0737 13.3713V13.938C21.0737 14.2913 20.7837 14.5813 20.4304 14.5813H19.8637C19.7337 14.5813 19.5437 14.6513 19.4437 14.738L18.917 15.1913C18.687 15.388 18.3104 15.388 18.077 15.1913L17.5504 14.738C17.4504 14.6513 17.2637 14.5813 17.1304 14.5813H16.5537C16.2004 14.5813 15.9104 14.2913 15.9104 13.938V13.368C15.9104 13.238 15.8404 13.0513 15.757 12.9513L15.307 12.4213C15.1137 12.1913 15.1137 11.818 15.307 11.588L15.757 11.058C15.8404 10.958 15.9104 10.7713 15.9104 10.6413V10.068C15.9104 9.71464 16.2004 9.42464 16.5537 9.42464H17.1304C17.2604 9.42464 17.4504 9.35464 17.5504 9.26797L18.077 8.81797Z" stroke="#A1A7B3" stroke-width="0.75" stroke-linecap="round" stroke-linejoin="round"/>
</svg>
