<svg width="24" height="24" viewBox="0 0 24 24" fill="none" xmlns="http://www.w3.org/2000/svg">
<g clip-path="url(#clip0_604_36366)">
<path d="M9.18022 9.31151C9.18022 8.44751 9.33222 7.63951 9.63622 6.88751C9.94022 6.11951 10.3562 5.43951 10.8842 4.84751C11.4122 4.25551 12.0202 3.79151 12.7082 3.45551C13.4122 3.10351 14.1482 2.92751 14.9162 2.92751C15.6042 2.92751 16.1242 3.03951 16.4762 3.26351C16.8442 3.48751 17.0282 3.79151 17.0282 4.17551C17.0282 4.43151 16.9882 4.67151 16.9082 4.89551C16.8442 5.10351 16.7642 5.27951 16.6682 5.42351C16.6042 5.55151 16.5002 5.58351 16.3562 5.51951C16.0202 5.37551 15.6522 5.25551 15.2522 5.15951C14.8522 5.06351 14.3882 5.01551 13.8602 5.01551C13.1402 5.01551 12.5882 5.20751 12.2042 5.59151C11.8202 5.97551 11.6282 6.52751 11.6282 7.24751C11.6282 7.80751 11.6362 8.21551 11.6522 8.47151C11.6842 8.72751 11.7162 8.98351 11.7482 9.23951V20.9995H9.18022V9.31151ZM7.52422 10.4395C7.39622 10.4395 7.34022 10.3595 7.35622 10.1995L7.47622 9.59951C7.50822 9.45551 7.60422 9.37551 7.76422 9.35951L9.20422 9.16751H13.8602L15.3962 9.09551C15.5562 9.07951 15.6362 9.15151 15.6362 9.31151C15.6522 9.45551 15.6522 9.60751 15.6362 9.76751C15.6202 9.92751 15.5962 10.0795 15.5642 10.2235C15.5162 10.3675 15.4202 10.4395 15.2762 10.4395H7.52422ZM7.81222 20.9995C7.66822 20.9995 7.59622 20.9195 7.59622 20.7595V20.4715C7.59622 20.3115 7.67622 20.2235 7.83622 20.2075L8.67622 19.9915C8.91622 19.9275 9.06022 19.8635 9.10822 19.7995C9.15622 19.7355 9.18022 19.5835 9.18022 19.3435V16.6795H11.7482V19.3675C11.7482 19.5915 11.7722 19.7355 11.8202 19.7995C11.8842 19.8635 12.0362 19.9195 12.2762 19.9675L13.6442 20.2315C13.7882 20.2475 13.8602 20.3355 13.8602 20.4955V20.7835C13.8602 20.9275 13.7802 20.9995 13.6202 20.9995H7.81222Z" fill="#FF844B"/>
</g>
<defs>
<clipPath id="clip0_604_36366">
<rect width="24" height="24" fill="white"/>
</clipPath>
</defs>
</svg>
